<mxfile host="Electron" modified="2023-09-15T12:18:14.125Z" agent="Mozilla/5.0 (Windows NT 10.0; Win64; x64) AppleWebKit/537.36 (KHTML, like Gecko) draw.io/21.6.8 Chrome/114.0.5735.289 Electron/25.5.0 Safari/537.36" etag="dna9YNcLguZAITDSPec-" version="21.6.8" type="device">
  <diagram name="第 1 页" id="LREzS9sARlyHeONbaTTD">
    <mxGraphModel dx="1221" dy="725" grid="1" gridSize="10" guides="1" tooltips="1" connect="1" arrows="1" fold="1" page="1" pageScale="1" pageWidth="827" pageHeight="1169" math="0" shadow="0">
      <root>
        <mxCell id="0" />
        <mxCell id="1" parent="0" />
        <mxCell id="tR9MzzpcBxLqF4oJmoSH-11" value="Channel" style="swimlane;fontStyle=1;align=center;verticalAlign=top;childLayout=stackLayout;horizontal=1;startSize=26;horizontalStack=0;resizeParent=1;resizeParentMax=0;resizeLast=0;collapsible=1;marginBottom=0;whiteSpace=wrap;html=1;" parent="1" vertex="1">
          <mxGeometry width="170" height="320" as="geometry" />
        </mxCell>
        <mxCell id="tR9MzzpcBxLqF4oJmoSH-12" value="- loop_: EventLoop*" style="text;strokeColor=none;fillColor=none;align=left;verticalAlign=top;spacingLeft=4;spacingRight=4;overflow=hidden;rotatable=0;points=[[0,0.5],[1,0.5]];portConstraint=eastwest;whiteSpace=wrap;html=1;" parent="tR9MzzpcBxLqF4oJmoSH-11" vertex="1">
          <mxGeometry y="26" width="170" height="26" as="geometry" />
        </mxCell>
        <mxCell id="tR9MzzpcBxLqF4oJmoSH-16" value="- fd_: const int" style="text;strokeColor=none;fillColor=none;align=left;verticalAlign=top;spacingLeft=4;spacingRight=4;overflow=hidden;rotatable=0;points=[[0,0.5],[1,0.5]];portConstraint=eastwest;whiteSpace=wrap;html=1;" parent="tR9MzzpcBxLqF4oJmoSH-11" vertex="1">
          <mxGeometry y="52" width="170" height="26" as="geometry" />
        </mxCell>
        <mxCell id="tR9MzzpcBxLqF4oJmoSH-17" value="- enents_: int" style="text;strokeColor=none;fillColor=none;align=left;verticalAlign=top;spacingLeft=4;spacingRight=4;overflow=hidden;rotatable=0;points=[[0,0.5],[1,0.5]];portConstraint=eastwest;whiteSpace=wrap;html=1;" parent="tR9MzzpcBxLqF4oJmoSH-11" vertex="1">
          <mxGeometry y="78" width="170" height="26" as="geometry" />
        </mxCell>
        <mxCell id="tR9MzzpcBxLqF4oJmoSH-18" value="- revent: int" style="text;strokeColor=none;fillColor=none;align=left;verticalAlign=top;spacingLeft=4;spacingRight=4;overflow=hidden;rotatable=0;points=[[0,0.5],[1,0.5]];portConstraint=eastwest;whiteSpace=wrap;html=1;" parent="tR9MzzpcBxLqF4oJmoSH-11" vertex="1">
          <mxGeometry y="104" width="170" height="26" as="geometry" />
        </mxCell>
        <mxCell id="tR9MzzpcBxLqF4oJmoSH-19" value="- readEventCallback" style="text;strokeColor=none;fillColor=none;align=left;verticalAlign=top;spacingLeft=4;spacingRight=4;overflow=hidden;rotatable=0;points=[[0,0.5],[1,0.5]];portConstraint=eastwest;whiteSpace=wrap;html=1;" parent="tR9MzzpcBxLqF4oJmoSH-11" vertex="1">
          <mxGeometry y="130" width="170" height="26" as="geometry" />
        </mxCell>
        <mxCell id="tR9MzzpcBxLqF4oJmoSH-20" value="- WriteCallback" style="text;strokeColor=none;fillColor=none;align=left;verticalAlign=top;spacingLeft=4;spacingRight=4;overflow=hidden;rotatable=0;points=[[0,0.5],[1,0.5]];portConstraint=eastwest;whiteSpace=wrap;html=1;" parent="tR9MzzpcBxLqF4oJmoSH-11" vertex="1">
          <mxGeometry y="156" width="170" height="26" as="geometry" />
        </mxCell>
        <mxCell id="tR9MzzpcBxLqF4oJmoSH-21" value="- CloseCallback" style="text;strokeColor=none;fillColor=none;align=left;verticalAlign=top;spacingLeft=4;spacingRight=4;overflow=hidden;rotatable=0;points=[[0,0.5],[1,0.5]];portConstraint=eastwest;whiteSpace=wrap;html=1;" parent="tR9MzzpcBxLqF4oJmoSH-11" vertex="1">
          <mxGeometry y="182" width="170" height="26" as="geometry" />
        </mxCell>
        <mxCell id="tR9MzzpcBxLqF4oJmoSH-22" value="- ErrorCallback" style="text;strokeColor=none;fillColor=none;align=left;verticalAlign=top;spacingLeft=4;spacingRight=4;overflow=hidden;rotatable=0;points=[[0,0.5],[1,0.5]];portConstraint=eastwest;whiteSpace=wrap;html=1;" parent="tR9MzzpcBxLqF4oJmoSH-11" vertex="1">
          <mxGeometry y="208" width="170" height="26" as="geometry" />
        </mxCell>
        <mxCell id="tR9MzzpcBxLqF4oJmoSH-13" value="" style="line;strokeWidth=1;fillColor=none;align=left;verticalAlign=middle;spacingTop=-1;spacingLeft=3;spacingRight=3;rotatable=0;labelPosition=right;points=[];portConstraint=eastwest;strokeColor=inherit;" parent="tR9MzzpcBxLqF4oJmoSH-11" vertex="1">
          <mxGeometry y="234" width="170" height="8" as="geometry" />
        </mxCell>
        <mxCell id="tR9MzzpcBxLqF4oJmoSH-14" value="- update()" style="text;strokeColor=none;fillColor=none;align=left;verticalAlign=top;spacingLeft=4;spacingRight=4;overflow=hidden;rotatable=0;points=[[0,0.5],[1,0.5]];portConstraint=eastwest;whiteSpace=wrap;html=1;" parent="tR9MzzpcBxLqF4oJmoSH-11" vertex="1">
          <mxGeometry y="242" width="170" height="26" as="geometry" />
        </mxCell>
        <mxCell id="tR9MzzpcBxLqF4oJmoSH-23" value="-&lt;font style=&quot;font-size: 10px;&quot;&gt;handleEventWithGurad&lt;/font&gt;(&lt;font style=&quot;font-size: 10px;&quot;&gt;TimeStamp&lt;/font&gt;)" style="text;strokeColor=none;fillColor=none;align=left;verticalAlign=top;spacingLeft=4;spacingRight=4;overflow=hidden;rotatable=0;points=[[0,0.5],[1,0.5]];portConstraint=eastwest;whiteSpace=wrap;html=1;" parent="tR9MzzpcBxLqF4oJmoSH-11" vertex="1">
          <mxGeometry y="268" width="170" height="52" as="geometry" />
        </mxCell>
        <mxCell id="tR9MzzpcBxLqF4oJmoSH-26" value="Poller" style="swimlane;fontStyle=1;align=center;verticalAlign=top;childLayout=stackLayout;horizontal=1;startSize=26;horizontalStack=0;resizeParent=1;resizeParentMax=0;resizeLast=0;collapsible=1;marginBottom=0;whiteSpace=wrap;html=1;" parent="1" vertex="1">
          <mxGeometry x="550" y="10" width="300" height="300" as="geometry" />
        </mxCell>
        <mxCell id="tR9MzzpcBxLqF4oJmoSH-27" value="&amp;nbsp;- channels_: ChannelMap" style="text;strokeColor=none;fillColor=none;align=left;verticalAlign=top;spacingLeft=4;spacingRight=4;overflow=hidden;rotatable=0;points=[[0,0.5],[1,0.5]];portConstraint=eastwest;whiteSpace=wrap;html=1;" parent="tR9MzzpcBxLqF4oJmoSH-26" vertex="1">
          <mxGeometry y="26" width="300" height="26" as="geometry" />
        </mxCell>
        <mxCell id="tR9MzzpcBxLqF4oJmoSH-28" value="- onwerloop_: EventLoop*" style="text;strokeColor=none;fillColor=none;align=left;verticalAlign=top;spacingLeft=4;spacingRight=4;overflow=hidden;rotatable=0;points=[[0,0.5],[1,0.5]];portConstraint=eastwest;whiteSpace=wrap;html=1;" parent="tR9MzzpcBxLqF4oJmoSH-26" vertex="1">
          <mxGeometry y="52" width="300" height="26" as="geometry" />
        </mxCell>
        <mxCell id="tR9MzzpcBxLqF4oJmoSH-29" value="- epollfd_: int" style="text;strokeColor=none;fillColor=none;align=left;verticalAlign=top;spacingLeft=4;spacingRight=4;overflow=hidden;rotatable=0;points=[[0,0.5],[1,0.5]];portConstraint=eastwest;whiteSpace=wrap;html=1;" parent="tR9MzzpcBxLqF4oJmoSH-26" vertex="1">
          <mxGeometry y="78" width="300" height="26" as="geometry" />
        </mxCell>
        <mxCell id="tR9MzzpcBxLqF4oJmoSH-30" value="- events_: EventList" style="text;strokeColor=none;fillColor=none;align=left;verticalAlign=top;spacingLeft=4;spacingRight=4;overflow=hidden;rotatable=0;points=[[0,0.5],[1,0.5]];portConstraint=eastwest;whiteSpace=wrap;html=1;" parent="tR9MzzpcBxLqF4oJmoSH-26" vertex="1">
          <mxGeometry y="104" width="300" height="26" as="geometry" />
        </mxCell>
        <mxCell id="tR9MzzpcBxLqF4oJmoSH-35" value="" style="line;strokeWidth=1;fillColor=none;align=left;verticalAlign=middle;spacingTop=-1;spacingLeft=3;spacingRight=3;rotatable=0;labelPosition=right;points=[];portConstraint=eastwest;strokeColor=inherit;" parent="tR9MzzpcBxLqF4oJmoSH-26" vertex="1">
          <mxGeometry y="130" width="300" height="8" as="geometry" />
        </mxCell>
        <mxCell id="tR9MzzpcBxLqF4oJmoSH-36" value="-&amp;nbsp;updateChannel(Channel* channel)" style="text;strokeColor=none;fillColor=none;align=left;verticalAlign=top;spacingLeft=4;spacingRight=4;overflow=hidden;rotatable=0;points=[[0,0.5],[1,0.5]];portConstraint=eastwest;whiteSpace=wrap;html=1;" parent="tR9MzzpcBxLqF4oJmoSH-26" vertex="1">
          <mxGeometry y="138" width="300" height="26" as="geometry" />
        </mxCell>
        <mxCell id="tR9MzzpcBxLqF4oJmoSH-52" value="-&amp;nbsp;removeChannel(Channel* channel)" style="text;strokeColor=none;fillColor=none;align=left;verticalAlign=top;spacingLeft=4;spacingRight=4;overflow=hidden;rotatable=0;points=[[0,0.5],[1,0.5]];portConstraint=eastwest;whiteSpace=wrap;html=1;" parent="tR9MzzpcBxLqF4oJmoSH-26" vertex="1">
          <mxGeometry y="164" width="300" height="26" as="geometry" />
        </mxCell>
        <mxCell id="tR9MzzpcBxLqF4oJmoSH-53" value="-&amp;nbsp;poll(int timeoutMs,ChannelList* activeChannels)&amp;nbsp;" style="text;strokeColor=none;fillColor=none;align=left;verticalAlign=top;spacingLeft=4;spacingRight=4;overflow=hidden;rotatable=0;points=[[0,0.5],[1,0.5]];portConstraint=eastwest;whiteSpace=wrap;html=1;" parent="tR9MzzpcBxLqF4oJmoSH-26" vertex="1">
          <mxGeometry y="190" width="300" height="26" as="geometry" />
        </mxCell>
        <mxCell id="tR9MzzpcBxLqF4oJmoSH-54" value="- update(int operation, Channel *channel)" style="text;strokeColor=none;fillColor=none;align=left;verticalAlign=top;spacingLeft=4;spacingRight=4;overflow=hidden;rotatable=0;points=[[0,0.5],[1,0.5]];portConstraint=eastwest;whiteSpace=wrap;html=1;" parent="tR9MzzpcBxLqF4oJmoSH-26" vertex="1">
          <mxGeometry y="216" width="300" height="26" as="geometry" />
        </mxCell>
        <mxCell id="tR9MzzpcBxLqF4oJmoSH-55" value="- fillActiveChannels(int numEvents, ChannelList *activeChannels)" style="text;strokeColor=none;fillColor=none;align=left;verticalAlign=top;spacingLeft=4;spacingRight=4;overflow=hidden;rotatable=0;points=[[0,0.5],[1,0.5]];portConstraint=eastwest;whiteSpace=wrap;html=1;" parent="tR9MzzpcBxLqF4oJmoSH-26" vertex="1">
          <mxGeometry y="242" width="300" height="58" as="geometry" />
        </mxCell>
        <mxCell id="tR9MzzpcBxLqF4oJmoSH-42" value="ChannelMap" style="swimlane;whiteSpace=wrap;html=1;" parent="1" vertex="1" collapsed="1">
          <mxGeometry x="895" y="34" width="110" height="30" as="geometry">
            <mxRectangle x="660" y="320" width="260" height="74" as="alternateBounds" />
          </mxGeometry>
        </mxCell>
        <mxCell id="tR9MzzpcBxLqF4oJmoSH-45" value="using ChannelMap = std::unordered_map&amp;lt;int,Channel*&amp;gt;;" style="text;html=1;align=center;verticalAlign=middle;resizable=0;points=[];autosize=1;strokeColor=none;fillColor=none;fontSize=9;" parent="tR9MzzpcBxLqF4oJmoSH-42" vertex="1">
          <mxGeometry x="5" y="40" width="250" height="20" as="geometry" />
        </mxCell>
        <mxCell id="tR9MzzpcBxLqF4oJmoSH-47" style="edgeStyle=orthogonalEdgeStyle;rounded=0;orthogonalLoop=1;jettySize=auto;html=1;exitX=1;exitY=0.5;exitDx=0;exitDy=0;entryX=0;entryY=0.5;entryDx=0;entryDy=0;" parent="1" source="tR9MzzpcBxLqF4oJmoSH-27" target="tR9MzzpcBxLqF4oJmoSH-42" edge="1">
          <mxGeometry relative="1" as="geometry" />
        </mxCell>
        <mxCell id="tR9MzzpcBxLqF4oJmoSH-48" value="EventList" style="swimlane;whiteSpace=wrap;html=1;" parent="1" vertex="1" collapsed="1">
          <mxGeometry x="905" y="112" width="90" height="30" as="geometry">
            <mxRectangle x="580" y="87" width="260" height="80" as="alternateBounds" />
          </mxGeometry>
        </mxCell>
        <mxCell id="tR9MzzpcBxLqF4oJmoSH-50" value="using EventList = std::vector&amp;lt;epoll_event&amp;gt;;" style="text;html=1;align=center;verticalAlign=middle;resizable=0;points=[];autosize=1;strokeColor=none;fillColor=none;" parent="tR9MzzpcBxLqF4oJmoSH-48" vertex="1">
          <mxGeometry y="30" width="250" height="30" as="geometry" />
        </mxCell>
        <mxCell id="tR9MzzpcBxLqF4oJmoSH-51" style="edgeStyle=orthogonalEdgeStyle;rounded=0;orthogonalLoop=1;jettySize=auto;html=1;exitX=1;exitY=0.5;exitDx=0;exitDy=0;entryX=0;entryY=0.5;entryDx=0;entryDy=0;" parent="1" source="tR9MzzpcBxLqF4oJmoSH-30" target="tR9MzzpcBxLqF4oJmoSH-48" edge="1">
          <mxGeometry relative="1" as="geometry" />
        </mxCell>
        <mxCell id="tR9MzzpcBxLqF4oJmoSH-56" value="Pool" style="swimlane;whiteSpace=wrap;html=1;" parent="1" vertex="1" collapsed="1">
          <mxGeometry x="915" y="198" width="70" height="30" as="geometry">
            <mxRectangle x="590" y="180" width="350" height="70" as="alternateBounds" />
          </mxGeometry>
        </mxCell>
        <mxCell id="tR9MzzpcBxLqF4oJmoSH-57" value="实际调用epoll_wait()来检测是否有事件发生，&lt;br&gt;有事件发生就填冲channellist,由channel执行相应的回调" style="text;html=1;align=left;verticalAlign=middle;resizable=0;points=[];autosize=1;strokeColor=none;fillColor=none;" parent="tR9MzzpcBxLqF4oJmoSH-56" vertex="1">
          <mxGeometry y="30" width="320" height="40" as="geometry" />
        </mxCell>
        <mxCell id="tR9MzzpcBxLqF4oJmoSH-58" style="edgeStyle=orthogonalEdgeStyle;rounded=0;orthogonalLoop=1;jettySize=auto;html=1;exitX=1;exitY=0.5;exitDx=0;exitDy=0;entryX=0;entryY=0.5;entryDx=0;entryDy=0;" parent="1" source="tR9MzzpcBxLqF4oJmoSH-53" target="tR9MzzpcBxLqF4oJmoSH-56" edge="1">
          <mxGeometry relative="1" as="geometry" />
        </mxCell>
        <mxCell id="tR9MzzpcBxLqF4oJmoSH-60" value="update" style="swimlane;whiteSpace=wrap;html=1;" parent="1" vertex="1" collapsed="1">
          <mxGeometry x="995" y="224" width="80" height="30" as="geometry">
            <mxRectangle x="655" y="536" width="270" height="88" as="alternateBounds" />
          </mxGeometry>
        </mxCell>
        <mxCell id="tR9MzzpcBxLqF4oJmoSH-62" value="实际执行epoll_ctrl()来对事件进行add,mod,del" style="text;html=1;align=center;verticalAlign=middle;resizable=0;points=[];autosize=1;strokeColor=none;fillColor=none;" parent="tR9MzzpcBxLqF4oJmoSH-60" vertex="1">
          <mxGeometry x="10" y="37" width="270" height="30" as="geometry" />
        </mxCell>
        <mxCell id="tR9MzzpcBxLqF4oJmoSH-61" style="edgeStyle=orthogonalEdgeStyle;rounded=0;orthogonalLoop=1;jettySize=auto;html=1;exitX=1;exitY=0.5;exitDx=0;exitDy=0;entryX=0;entryY=0.5;entryDx=0;entryDy=0;" parent="1" source="tR9MzzpcBxLqF4oJmoSH-54" target="tR9MzzpcBxLqF4oJmoSH-60" edge="1">
          <mxGeometry relative="1" as="geometry" />
        </mxCell>
        <mxCell id="tR9MzzpcBxLqF4oJmoSH-71" value="readEventCallback" style="swimlane;whiteSpace=wrap;html=1;" parent="1" vertex="1" collapsed="1">
          <mxGeometry x="230" y="95" width="150" height="30" as="geometry">
            <mxRectangle x="230" y="95" width="190" height="55" as="alternateBounds" />
          </mxGeometry>
        </mxCell>
        <mxCell id="tR9MzzpcBxLqF4oJmoSH-72" value="绑定的是EventLoop的handRead()" style="text;html=1;align=center;verticalAlign=middle;resizable=0;points=[];autosize=1;strokeColor=none;fillColor=none;" parent="tR9MzzpcBxLqF4oJmoSH-71" vertex="1">
          <mxGeometry y="25" width="200" height="30" as="geometry" />
        </mxCell>
        <mxCell id="tR9MzzpcBxLqF4oJmoSH-74" style="edgeStyle=orthogonalEdgeStyle;rounded=0;orthogonalLoop=1;jettySize=auto;html=1;exitX=1;exitY=0.5;exitDx=0;exitDy=0;entryX=0;entryY=0.25;entryDx=0;entryDy=0;" parent="1" source="tR9MzzpcBxLqF4oJmoSH-19" target="tR9MzzpcBxLqF4oJmoSH-71" edge="1">
          <mxGeometry relative="1" as="geometry" />
        </mxCell>
        <mxCell id="tR9MzzpcBxLqF4oJmoSH-106" style="edgeStyle=orthogonalEdgeStyle;rounded=0;orthogonalLoop=1;jettySize=auto;html=1;exitX=1;exitY=0.5;exitDx=0;exitDy=0;entryX=0;entryY=0.5;entryDx=0;entryDy=0;" parent="1" source="tR9MzzpcBxLqF4oJmoSH-75" target="tR9MzzpcBxLqF4oJmoSH-96" edge="1">
          <mxGeometry relative="1" as="geometry" />
        </mxCell>
        <mxCell id="tR9MzzpcBxLqF4oJmoSH-75" value="EventLoop" style="swimlane;fontStyle=1;align=center;verticalAlign=top;childLayout=stackLayout;horizontal=1;startSize=26;horizontalStack=0;resizeParent=1;resizeParentMax=0;resizeLast=0;collapsible=1;marginBottom=0;whiteSpace=wrap;html=1;" parent="1" vertex="1">
          <mxGeometry y="400" width="340" height="398" as="geometry" />
        </mxCell>
        <mxCell id="tR9MzzpcBxLqF4oJmoSH-76" value="-&amp;nbsp;threadId:const pid_t" style="text;strokeColor=none;fillColor=none;align=left;verticalAlign=top;spacingLeft=4;spacingRight=4;overflow=hidden;rotatable=0;points=[[0,0.5],[1,0.5]];portConstraint=eastwest;whiteSpace=wrap;html=1;" parent="tR9MzzpcBxLqF4oJmoSH-75" vertex="1">
          <mxGeometry y="26" width="340" height="26" as="geometry" />
        </mxCell>
        <mxCell id="tR9MzzpcBxLqF4oJmoSH-85" value="-&amp;nbsp;poller_:std::unique_ptr&amp;lt;Poller&amp;gt;" style="text;strokeColor=none;fillColor=none;align=left;verticalAlign=top;spacingLeft=4;spacingRight=4;overflow=hidden;rotatable=0;points=[[0,0.5],[1,0.5]];portConstraint=eastwest;whiteSpace=wrap;html=1;" parent="tR9MzzpcBxLqF4oJmoSH-75" vertex="1">
          <mxGeometry y="52" width="340" height="26" as="geometry" />
        </mxCell>
        <mxCell id="tR9MzzpcBxLqF4oJmoSH-82" value="-&amp;nbsp;wakeupFd: int" style="text;strokeColor=none;fillColor=none;align=left;verticalAlign=top;spacingLeft=4;spacingRight=4;overflow=hidden;rotatable=0;points=[[0,0.5],[1,0.5]];portConstraint=eastwest;whiteSpace=wrap;html=1;" parent="tR9MzzpcBxLqF4oJmoSH-75" vertex="1">
          <mxGeometry y="78" width="340" height="26" as="geometry" />
        </mxCell>
        <mxCell id="tR9MzzpcBxLqF4oJmoSH-81" value="-&amp;nbsp;wakeupChannel_:std::unique_ptr&amp;lt;Channel&amp;gt;" style="text;strokeColor=none;fillColor=none;align=left;verticalAlign=top;spacingLeft=4;spacingRight=4;overflow=hidden;rotatable=0;points=[[0,0.5],[1,0.5]];portConstraint=eastwest;whiteSpace=wrap;html=1;" parent="tR9MzzpcBxLqF4oJmoSH-75" vertex="1">
          <mxGeometry y="104" width="340" height="26" as="geometry" />
        </mxCell>
        <mxCell id="tR9MzzpcBxLqF4oJmoSH-83" value="-&amp;nbsp;activeChannels_:ChannelList" style="text;strokeColor=none;fillColor=none;align=left;verticalAlign=top;spacingLeft=4;spacingRight=4;overflow=hidden;rotatable=0;points=[[0,0.5],[1,0.5]];portConstraint=eastwest;whiteSpace=wrap;html=1;" parent="tR9MzzpcBxLqF4oJmoSH-75" vertex="1">
          <mxGeometry y="130" width="340" height="26" as="geometry" />
        </mxCell>
        <mxCell id="tR9MzzpcBxLqF4oJmoSH-80" value="-&amp;nbsp;callingPendingFunctors_:bool" style="text;strokeColor=none;fillColor=none;align=left;verticalAlign=top;spacingLeft=4;spacingRight=4;overflow=hidden;rotatable=0;points=[[0,0.5],[1,0.5]];portConstraint=eastwest;whiteSpace=wrap;html=1;" parent="tR9MzzpcBxLqF4oJmoSH-75" vertex="1">
          <mxGeometry y="156" width="340" height="26" as="geometry" />
        </mxCell>
        <mxCell id="tR9MzzpcBxLqF4oJmoSH-79" value="-&amp;nbsp;pendingFunctors_:&amp;nbsp;std::vector&amp;lt;Functor&amp;gt;&amp;nbsp;" style="text;strokeColor=none;fillColor=none;align=left;verticalAlign=top;spacingLeft=4;spacingRight=4;overflow=hidden;rotatable=0;points=[[0,0.5],[1,0.5]];portConstraint=eastwest;whiteSpace=wrap;html=1;" parent="tR9MzzpcBxLqF4oJmoSH-75" vertex="1">
          <mxGeometry y="182" width="340" height="26" as="geometry" />
        </mxCell>
        <mxCell id="tR9MzzpcBxLqF4oJmoSH-77" value="" style="line;strokeWidth=1;fillColor=none;align=left;verticalAlign=middle;spacingTop=-1;spacingLeft=3;spacingRight=3;rotatable=0;labelPosition=right;points=[];portConstraint=eastwest;strokeColor=inherit;" parent="tR9MzzpcBxLqF4oJmoSH-75" vertex="1">
          <mxGeometry y="208" width="340" height="8" as="geometry" />
        </mxCell>
        <mxCell id="tR9MzzpcBxLqF4oJmoSH-78" value="- runInLoop(Functor): void" style="text;strokeColor=none;fillColor=none;align=left;verticalAlign=top;spacingLeft=4;spacingRight=4;overflow=hidden;rotatable=0;points=[[0,0.5],[1,0.5]];portConstraint=eastwest;whiteSpace=wrap;html=1;" parent="tR9MzzpcBxLqF4oJmoSH-75" vertex="1">
          <mxGeometry y="216" width="340" height="26" as="geometry" />
        </mxCell>
        <mxCell id="tR9MzzpcBxLqF4oJmoSH-86" value="- queueInLoop(Functor): void" style="text;strokeColor=none;fillColor=none;align=left;verticalAlign=top;spacingLeft=4;spacingRight=4;overflow=hidden;rotatable=0;points=[[0,0.5],[1,0.5]];portConstraint=eastwest;whiteSpace=wrap;html=1;" parent="tR9MzzpcBxLqF4oJmoSH-75" vertex="1">
          <mxGeometry y="242" width="340" height="26" as="geometry" />
        </mxCell>
        <mxCell id="tR9MzzpcBxLqF4oJmoSH-87" value="- removeChannel(Channel* channel): void" style="text;strokeColor=none;fillColor=none;align=left;verticalAlign=top;spacingLeft=4;spacingRight=4;overflow=hidden;rotatable=0;points=[[0,0.5],[1,0.5]];portConstraint=eastwest;whiteSpace=wrap;html=1;" parent="tR9MzzpcBxLqF4oJmoSH-75" vertex="1">
          <mxGeometry y="268" width="340" height="26" as="geometry" />
        </mxCell>
        <mxCell id="tR9MzzpcBxLqF4oJmoSH-88" value="- hasChannel(Channel *channel) : bool" style="text;strokeColor=none;fillColor=none;align=left;verticalAlign=top;spacingLeft=4;spacingRight=4;overflow=hidden;rotatable=0;points=[[0,0.5],[1,0.5]];portConstraint=eastwest;whiteSpace=wrap;html=1;" parent="tR9MzzpcBxLqF4oJmoSH-75" vertex="1">
          <mxGeometry y="294" width="340" height="26" as="geometry" />
        </mxCell>
        <mxCell id="tR9MzzpcBxLqF4oJmoSH-89" value="- handleRead() : void&amp;nbsp;" style="text;strokeColor=none;fillColor=none;align=left;verticalAlign=top;spacingLeft=4;spacingRight=4;overflow=hidden;rotatable=0;points=[[0,0.5],[1,0.5]];portConstraint=eastwest;whiteSpace=wrap;html=1;" parent="tR9MzzpcBxLqF4oJmoSH-75" vertex="1">
          <mxGeometry y="320" width="340" height="26" as="geometry" />
        </mxCell>
        <mxCell id="tR9MzzpcBxLqF4oJmoSH-90" value="- doPendingFunctors() : void" style="text;strokeColor=none;fillColor=none;align=left;verticalAlign=top;spacingLeft=4;spacingRight=4;overflow=hidden;rotatable=0;points=[[0,0.5],[1,0.5]];portConstraint=eastwest;whiteSpace=wrap;html=1;" parent="tR9MzzpcBxLqF4oJmoSH-75" vertex="1">
          <mxGeometry y="346" width="340" height="26" as="geometry" />
        </mxCell>
        <mxCell id="tR9MzzpcBxLqF4oJmoSH-91" value="- wakeup()" style="text;strokeColor=none;fillColor=none;align=left;verticalAlign=top;spacingLeft=4;spacingRight=4;overflow=hidden;rotatable=0;points=[[0,0.5],[1,0.5]];portConstraint=eastwest;whiteSpace=wrap;html=1;" parent="tR9MzzpcBxLqF4oJmoSH-75" vertex="1">
          <mxGeometry y="372" width="340" height="26" as="geometry" />
        </mxCell>
        <mxCell id="tR9MzzpcBxLqF4oJmoSH-92" value="wakeup" style="swimlane;whiteSpace=wrap;html=1;" parent="1" vertex="1" collapsed="1">
          <mxGeometry x="540" y="500" width="80" height="30" as="geometry">
            <mxRectangle x="460" y="790" width="240" height="68" as="alternateBounds" />
          </mxGeometry>
        </mxCell>
        <mxCell id="tR9MzzpcBxLqF4oJmoSH-95" value="唤醒loop所在线程" style="text;html=1;align=center;verticalAlign=middle;resizable=0;points=[];autosize=1;strokeColor=none;fillColor=none;" parent="tR9MzzpcBxLqF4oJmoSH-92" vertex="1">
          <mxGeometry x="40" y="32" width="120" height="30" as="geometry" />
        </mxCell>
        <mxCell id="tR9MzzpcBxLqF4oJmoSH-93" style="edgeStyle=orthogonalEdgeStyle;rounded=0;orthogonalLoop=1;jettySize=auto;html=1;exitX=1;exitY=0.5;exitDx=0;exitDy=0;entryX=0;entryY=0.25;entryDx=0;entryDy=0;" parent="1" source="tR9MzzpcBxLqF4oJmoSH-81" target="tR9MzzpcBxLqF4oJmoSH-92" edge="1">
          <mxGeometry relative="1" as="geometry" />
        </mxCell>
        <mxCell id="tR9MzzpcBxLqF4oJmoSH-94" style="edgeStyle=orthogonalEdgeStyle;rounded=0;orthogonalLoop=1;jettySize=auto;html=1;exitX=1;exitY=0.5;exitDx=0;exitDy=0;entryX=0;entryY=0.25;entryDx=0;entryDy=0;" parent="1" source="tR9MzzpcBxLqF4oJmoSH-82" target="tR9MzzpcBxLqF4oJmoSH-92" edge="1">
          <mxGeometry relative="1" as="geometry" />
        </mxCell>
        <mxCell id="tR9MzzpcBxLqF4oJmoSH-96" value="pendingFunctors" style="swimlane;whiteSpace=wrap;html=1;" parent="1" vertex="1" collapsed="1">
          <mxGeometry x="415" y="585" width="140" height="30" as="geometry">
            <mxRectangle x="450" y="916" width="260" height="66" as="alternateBounds" />
          </mxGeometry>
        </mxCell>
        <mxCell id="tR9MzzpcBxLqF4oJmoSH-98" value="保存queueInloop中的回调" style="text;html=1;align=left;verticalAlign=middle;resizable=0;points=[];autosize=1;strokeColor=none;fillColor=none;" parent="tR9MzzpcBxLqF4oJmoSH-96" vertex="1">
          <mxGeometry x="40" y="34" width="160" height="30" as="geometry" />
        </mxCell>
        <mxCell id="tR9MzzpcBxLqF4oJmoSH-99" value="handleRead" style="swimlane;whiteSpace=wrap;html=1;" parent="1" vertex="1" collapsed="1">
          <mxGeometry x="415" y="718" width="110" height="30" as="geometry">
            <mxRectangle x="450" y="1008" width="270" height="70" as="alternateBounds" />
          </mxGeometry>
        </mxCell>
        <mxCell id="tR9MzzpcBxLqF4oJmoSH-101" value="从wakeupfd上接受消息" style="text;html=1;align=left;verticalAlign=middle;resizable=0;points=[];autosize=1;strokeColor=none;fillColor=none;" parent="tR9MzzpcBxLqF4oJmoSH-99" vertex="1">
          <mxGeometry x="10" y="30" width="150" height="30" as="geometry" />
        </mxCell>
        <mxCell id="tR9MzzpcBxLqF4oJmoSH-103" value="wakeup" style="swimlane;whiteSpace=wrap;html=1;" parent="1" vertex="1" collapsed="1">
          <mxGeometry x="415" y="770" width="80" height="30" as="geometry">
            <mxRectangle x="460" y="1140" width="200" height="70" as="alternateBounds" />
          </mxGeometry>
        </mxCell>
        <mxCell id="tR9MzzpcBxLqF4oJmoSH-105" value="唤醒loop所在线程" style="text;html=1;align=center;verticalAlign=middle;resizable=0;points=[];autosize=1;strokeColor=none;fillColor=none;" parent="tR9MzzpcBxLqF4oJmoSH-103" vertex="1">
          <mxGeometry x="20" y="28" width="120" height="30" as="geometry" />
        </mxCell>
        <mxCell id="tR9MzzpcBxLqF4oJmoSH-107" style="edgeStyle=orthogonalEdgeStyle;rounded=0;orthogonalLoop=1;jettySize=auto;html=1;exitX=1;exitY=0.5;exitDx=0;exitDy=0;entryX=0;entryY=0.5;entryDx=0;entryDy=0;" parent="1" source="tR9MzzpcBxLqF4oJmoSH-89" target="tR9MzzpcBxLqF4oJmoSH-99" edge="1">
          <mxGeometry relative="1" as="geometry" />
        </mxCell>
        <mxCell id="tR9MzzpcBxLqF4oJmoSH-108" style="edgeStyle=orthogonalEdgeStyle;rounded=0;orthogonalLoop=1;jettySize=auto;html=1;exitX=1;exitY=0.5;exitDx=0;exitDy=0;entryX=0;entryY=0.5;entryDx=0;entryDy=0;" parent="1" source="tR9MzzpcBxLqF4oJmoSH-91" target="tR9MzzpcBxLqF4oJmoSH-103" edge="1">
          <mxGeometry relative="1" as="geometry" />
        </mxCell>
        <mxCell id="tR9MzzpcBxLqF4oJmoSH-112" value="EventLoopThread" style="swimlane;fontStyle=1;align=center;verticalAlign=top;childLayout=stackLayout;horizontal=1;startSize=26;horizontalStack=0;resizeParent=1;resizeParentMax=0;resizeLast=0;collapsible=1;marginBottom=0;whiteSpace=wrap;html=1;" parent="1" vertex="1">
          <mxGeometry x="735" y="400" width="245" height="190" as="geometry" />
        </mxCell>
        <mxCell id="tR9MzzpcBxLqF4oJmoSH-113" value="- loop_: EventLoop*" style="text;strokeColor=none;fillColor=none;align=left;verticalAlign=top;spacingLeft=4;spacingRight=4;overflow=hidden;rotatable=0;points=[[0,0.5],[1,0.5]];portConstraint=eastwest;whiteSpace=wrap;html=1;" parent="tR9MzzpcBxLqF4oJmoSH-112" vertex="1">
          <mxGeometry y="26" width="245" height="26" as="geometry" />
        </mxCell>
        <mxCell id="tR9MzzpcBxLqF4oJmoSH-116" value="- exitting : bool" style="text;strokeColor=none;fillColor=none;align=left;verticalAlign=top;spacingLeft=4;spacingRight=4;overflow=hidden;rotatable=0;points=[[0,0.5],[1,0.5]];portConstraint=eastwest;whiteSpace=wrap;html=1;" parent="tR9MzzpcBxLqF4oJmoSH-112" vertex="1">
          <mxGeometry y="52" width="245" height="26" as="geometry" />
        </mxCell>
        <mxCell id="tR9MzzpcBxLqF4oJmoSH-117" value="- thread: Thread" style="text;strokeColor=none;fillColor=none;align=left;verticalAlign=top;spacingLeft=4;spacingRight=4;overflow=hidden;rotatable=0;points=[[0,0.5],[1,0.5]];portConstraint=eastwest;whiteSpace=wrap;html=1;" parent="tR9MzzpcBxLqF4oJmoSH-112" vertex="1">
          <mxGeometry y="78" width="245" height="26" as="geometry" />
        </mxCell>
        <mxCell id="tR9MzzpcBxLqF4oJmoSH-118" value="- callbacks_: ThreadInitCallback" style="text;strokeColor=none;fillColor=none;align=left;verticalAlign=top;spacingLeft=4;spacingRight=4;overflow=hidden;rotatable=0;points=[[0,0.5],[1,0.5]];portConstraint=eastwest;whiteSpace=wrap;html=1;" parent="tR9MzzpcBxLqF4oJmoSH-112" vertex="1">
          <mxGeometry y="104" width="245" height="26" as="geometry" />
        </mxCell>
        <mxCell id="tR9MzzpcBxLqF4oJmoSH-114" value="" style="line;strokeWidth=1;fillColor=none;align=left;verticalAlign=middle;spacingTop=-1;spacingLeft=3;spacingRight=3;rotatable=0;labelPosition=right;points=[];portConstraint=eastwest;strokeColor=inherit;" parent="tR9MzzpcBxLqF4oJmoSH-112" vertex="1">
          <mxGeometry y="130" width="245" height="8" as="geometry" />
        </mxCell>
        <mxCell id="tR9MzzpcBxLqF4oJmoSH-115" value="- threadFun(): void" style="text;strokeColor=none;fillColor=none;align=left;verticalAlign=top;spacingLeft=4;spacingRight=4;overflow=hidden;rotatable=0;points=[[0,0.5],[1,0.5]];portConstraint=eastwest;whiteSpace=wrap;html=1;" parent="tR9MzzpcBxLqF4oJmoSH-112" vertex="1">
          <mxGeometry y="138" width="245" height="26" as="geometry" />
        </mxCell>
        <mxCell id="tR9MzzpcBxLqF4oJmoSH-123" value="- startloop() : EventLoop*" style="text;strokeColor=none;fillColor=none;align=left;verticalAlign=top;spacingLeft=4;spacingRight=4;overflow=hidden;rotatable=0;points=[[0,0.5],[1,0.5]];portConstraint=eastwest;whiteSpace=wrap;html=1;" parent="tR9MzzpcBxLqF4oJmoSH-112" vertex="1">
          <mxGeometry y="164" width="245" height="26" as="geometry" />
        </mxCell>
        <mxCell id="tR9MzzpcBxLqF4oJmoSH-122" style="edgeStyle=orthogonalEdgeStyle;rounded=0;orthogonalLoop=1;jettySize=auto;html=1;exitX=0.5;exitY=0;exitDx=0;exitDy=0;entryX=0.523;entryY=0.01;entryDx=0;entryDy=0;entryPerimeter=0;" parent="1" source="tR9MzzpcBxLqF4oJmoSH-112" target="tR9MzzpcBxLqF4oJmoSH-112" edge="1">
          <mxGeometry relative="1" as="geometry" />
        </mxCell>
        <mxCell id="tR9MzzpcBxLqF4oJmoSH-124" value="threadFunc" style="swimlane;whiteSpace=wrap;html=1;" parent="1" vertex="1" collapsed="1">
          <mxGeometry x="1090" y="508" width="110" height="30" as="geometry">
            <mxRectangle x="1090" y="508" width="311" height="70" as="alternateBounds" />
          </mxGeometry>
        </mxCell>
        <mxCell id="tR9MzzpcBxLqF4oJmoSH-126" value="线程函数，loop在新线程中创建，loop是栈上的对象，&lt;br&gt;创建好了通过条件变量通知返回，并开启loop循环" style="text;html=1;align=center;verticalAlign=middle;resizable=0;points=[];autosize=1;strokeColor=none;fillColor=none;" parent="tR9MzzpcBxLqF4oJmoSH-124" vertex="1">
          <mxGeometry x="1" y="21" width="310" height="40" as="geometry" />
        </mxCell>
        <mxCell id="tR9MzzpcBxLqF4oJmoSH-125" style="edgeStyle=orthogonalEdgeStyle;rounded=0;orthogonalLoop=1;jettySize=auto;html=1;exitX=1;exitY=0.5;exitDx=0;exitDy=0;entryX=0;entryY=0.5;entryDx=0;entryDy=0;" parent="1" source="tR9MzzpcBxLqF4oJmoSH-115" target="tR9MzzpcBxLqF4oJmoSH-124" edge="1">
          <mxGeometry relative="1" as="geometry" />
        </mxCell>
        <mxCell id="tR9MzzpcBxLqF4oJmoSH-128" value="startLoop" style="swimlane;whiteSpace=wrap;html=1;" parent="1" vertex="1" collapsed="1">
          <mxGeometry x="1100" y="562" width="100" height="30" as="geometry">
            <mxRectangle x="1100" y="562" width="280" height="88" as="alternateBounds" />
          </mxGeometry>
        </mxCell>
        <mxCell id="tR9MzzpcBxLqF4oJmoSH-130" value="等待线程创建好loop，等待条件通知，返回该loop" style="text;html=1;align=center;verticalAlign=middle;resizable=0;points=[];autosize=1;strokeColor=none;fillColor=none;" parent="tR9MzzpcBxLqF4oJmoSH-128" vertex="1">
          <mxGeometry y="34" width="280" height="30" as="geometry" />
        </mxCell>
        <mxCell id="tR9MzzpcBxLqF4oJmoSH-129" style="edgeStyle=orthogonalEdgeStyle;rounded=0;orthogonalLoop=1;jettySize=auto;html=1;exitX=1;exitY=0.5;exitDx=0;exitDy=0;entryX=0;entryY=0.5;entryDx=0;entryDy=0;" parent="1" source="tR9MzzpcBxLqF4oJmoSH-123" target="tR9MzzpcBxLqF4oJmoSH-128" edge="1">
          <mxGeometry relative="1" as="geometry" />
        </mxCell>
        <mxCell id="XB_2aK_YlP-w_5xTxXp9-2" value="EventLoopThreadLoop" style="swimlane;fontStyle=1;align=center;verticalAlign=top;childLayout=stackLayout;horizontal=1;startSize=26;horizontalStack=0;resizeParent=1;resizeParentMax=0;resizeLast=0;collapsible=1;marginBottom=0;whiteSpace=wrap;html=1;" vertex="1" parent="1">
          <mxGeometry y="880" width="370" height="216" as="geometry" />
        </mxCell>
        <mxCell id="XB_2aK_YlP-w_5xTxXp9-3" value="- baseloop_ : EventLoop*" style="text;strokeColor=none;fillColor=none;align=left;verticalAlign=top;spacingLeft=4;spacingRight=4;overflow=hidden;rotatable=0;points=[[0,0.5],[1,0.5]];portConstraint=eastwest;whiteSpace=wrap;html=1;" vertex="1" parent="XB_2aK_YlP-w_5xTxXp9-2">
          <mxGeometry y="26" width="370" height="26" as="geometry" />
        </mxCell>
        <mxCell id="XB_2aK_YlP-w_5xTxXp9-6" value="- thread_ :&amp;nbsp;std::vector&amp;lt;std::unique_ptr&amp;lt;EventLoopThread&amp;gt;&amp;gt;" style="text;strokeColor=none;fillColor=none;align=left;verticalAlign=top;spacingLeft=4;spacingRight=4;overflow=hidden;rotatable=0;points=[[0,0.5],[1,0.5]];portConstraint=eastwest;whiteSpace=wrap;html=1;" vertex="1" parent="XB_2aK_YlP-w_5xTxXp9-2">
          <mxGeometry y="52" width="370" height="26" as="geometry" />
        </mxCell>
        <mxCell id="XB_2aK_YlP-w_5xTxXp9-9" value="- loops_ :&amp;nbsp;std::vector&amp;lt;EventLoop*&amp;gt;" style="text;strokeColor=none;fillColor=none;align=left;verticalAlign=top;spacingLeft=4;spacingRight=4;overflow=hidden;rotatable=0;points=[[0,0.5],[1,0.5]];portConstraint=eastwest;whiteSpace=wrap;html=1;" vertex="1" parent="XB_2aK_YlP-w_5xTxXp9-2">
          <mxGeometry y="78" width="370" height="26" as="geometry" />
        </mxCell>
        <mxCell id="XB_2aK_YlP-w_5xTxXp9-11" value="- next_ : int" style="text;strokeColor=none;fillColor=none;align=left;verticalAlign=top;spacingLeft=4;spacingRight=4;overflow=hidden;rotatable=0;points=[[0,0.5],[1,0.5]];portConstraint=eastwest;whiteSpace=wrap;html=1;" vertex="1" parent="XB_2aK_YlP-w_5xTxXp9-2">
          <mxGeometry y="104" width="370" height="26" as="geometry" />
        </mxCell>
        <mxCell id="XB_2aK_YlP-w_5xTxXp9-4" value="" style="line;strokeWidth=1;fillColor=none;align=left;verticalAlign=middle;spacingTop=-1;spacingLeft=3;spacingRight=3;rotatable=0;labelPosition=right;points=[];portConstraint=eastwest;strokeColor=inherit;" vertex="1" parent="XB_2aK_YlP-w_5xTxXp9-2">
          <mxGeometry y="130" width="370" height="8" as="geometry" />
        </mxCell>
        <mxCell id="XB_2aK_YlP-w_5xTxXp9-5" value="+ getAllLoops:std::vector&amp;lt;EventLoop*&amp;gt;&amp;nbsp;" style="text;strokeColor=none;fillColor=none;align=left;verticalAlign=top;spacingLeft=4;spacingRight=4;overflow=hidden;rotatable=0;points=[[0,0.5],[1,0.5]];portConstraint=eastwest;whiteSpace=wrap;html=1;" vertex="1" parent="XB_2aK_YlP-w_5xTxXp9-2">
          <mxGeometry y="138" width="370" height="26" as="geometry" />
        </mxCell>
        <mxCell id="XB_2aK_YlP-w_5xTxXp9-12" value="&lt;div style=&quot;line-height: 24px;&quot;&gt;+ getnextLLoop : EventLoop*&lt;/div&gt;" style="text;strokeColor=none;fillColor=none;align=left;verticalAlign=top;spacingLeft=4;spacingRight=4;overflow=hidden;rotatable=0;points=[[0,0.5],[1,0.5]];portConstraint=eastwest;whiteSpace=wrap;html=1;" vertex="1" parent="XB_2aK_YlP-w_5xTxXp9-2">
          <mxGeometry y="164" width="370" height="26" as="geometry" />
        </mxCell>
        <mxCell id="XB_2aK_YlP-w_5xTxXp9-13" value="&lt;div style=&quot;line-height: 24px;&quot;&gt;+ start() :void&lt;/div&gt;" style="text;strokeColor=none;fillColor=none;align=left;verticalAlign=top;spacingLeft=4;spacingRight=4;overflow=hidden;rotatable=0;points=[[0,0.5],[1,0.5]];portConstraint=eastwest;whiteSpace=wrap;html=1;" vertex="1" parent="XB_2aK_YlP-w_5xTxXp9-2">
          <mxGeometry y="190" width="370" height="26" as="geometry" />
        </mxCell>
        <mxCell id="XB_2aK_YlP-w_5xTxXp9-14" value="getnextLoop" style="swimlane;whiteSpace=wrap;html=1;" vertex="1" collapsed="1" parent="1">
          <mxGeometry x="455" y="920" width="110" height="30" as="geometry">
            <mxRectangle x="455" y="920" width="250" height="61" as="alternateBounds" />
          </mxGeometry>
        </mxCell>
        <mxCell id="XB_2aK_YlP-w_5xTxXp9-15" value="在多线程环境下，以轮询方式找subloop" style="text;html=1;align=center;verticalAlign=middle;resizable=0;points=[];autosize=1;strokeColor=none;fillColor=none;" vertex="1" parent="XB_2aK_YlP-w_5xTxXp9-14">
          <mxGeometry x="10" y="30" width="230" height="30" as="geometry" />
        </mxCell>
        <mxCell id="XB_2aK_YlP-w_5xTxXp9-16" style="edgeStyle=orthogonalEdgeStyle;rounded=0;orthogonalLoop=1;jettySize=auto;html=1;exitX=1;exitY=0.5;exitDx=0;exitDy=0;entryX=0;entryY=0.25;entryDx=0;entryDy=0;" edge="1" parent="1" source="XB_2aK_YlP-w_5xTxXp9-12" target="XB_2aK_YlP-w_5xTxXp9-14">
          <mxGeometry relative="1" as="geometry" />
        </mxCell>
        <mxCell id="XB_2aK_YlP-w_5xTxXp9-17" value="start" style="swimlane;whiteSpace=wrap;html=1;" vertex="1" collapsed="1" parent="1">
          <mxGeometry x="480" y="1040" width="70" height="30" as="geometry">
            <mxRectangle x="480" y="1040" width="270" height="80" as="alternateBounds" />
          </mxGeometry>
        </mxCell>
        <mxCell id="XB_2aK_YlP-w_5xTxXp9-18" value="创建线程，启动loop" style="text;html=1;align=center;verticalAlign=middle;resizable=0;points=[];autosize=1;strokeColor=none;fillColor=none;" vertex="1" parent="XB_2aK_YlP-w_5xTxXp9-17">
          <mxGeometry x="10" y="30" width="130" height="30" as="geometry" />
        </mxCell>
        <mxCell id="XB_2aK_YlP-w_5xTxXp9-19" style="edgeStyle=orthogonalEdgeStyle;rounded=0;orthogonalLoop=1;jettySize=auto;html=1;exitX=1;exitY=0.5;exitDx=0;exitDy=0;" edge="1" parent="1" source="XB_2aK_YlP-w_5xTxXp9-13" target="XB_2aK_YlP-w_5xTxXp9-17">
          <mxGeometry relative="1" as="geometry" />
        </mxCell>
        <mxCell id="XB_2aK_YlP-w_5xTxXp9-21" value="Acceptor" style="swimlane;fontStyle=1;align=center;verticalAlign=top;childLayout=stackLayout;horizontal=1;startSize=26;horizontalStack=0;resizeParent=1;resizeParentMax=0;resizeLast=0;collapsible=1;marginBottom=0;whiteSpace=wrap;html=1;" vertex="1" parent="1">
          <mxGeometry x="665" y="880" width="435" height="190" as="geometry" />
        </mxCell>
        <mxCell id="XB_2aK_YlP-w_5xTxXp9-22" value="- baseloop_ :EventLoop*" style="text;strokeColor=none;fillColor=none;align=left;verticalAlign=top;spacingLeft=4;spacingRight=4;overflow=hidden;rotatable=0;points=[[0,0.5],[1,0.5]];portConstraint=eastwest;whiteSpace=wrap;html=1;" vertex="1" parent="XB_2aK_YlP-w_5xTxXp9-21">
          <mxGeometry y="26" width="435" height="26" as="geometry" />
        </mxCell>
        <mxCell id="XB_2aK_YlP-w_5xTxXp9-29" value="-&amp;nbsp; acceptSocket : Socket" style="text;strokeColor=none;fillColor=none;align=left;verticalAlign=top;spacingLeft=4;spacingRight=4;overflow=hidden;rotatable=0;points=[[0,0.5],[1,0.5]];portConstraint=eastwest;whiteSpace=wrap;html=1;" vertex="1" parent="XB_2aK_YlP-w_5xTxXp9-21">
          <mxGeometry y="52" width="435" height="26" as="geometry" />
        </mxCell>
        <mxCell id="XB_2aK_YlP-w_5xTxXp9-31" value="- acceptorChannel_ : Channel" style="text;strokeColor=none;fillColor=none;align=left;verticalAlign=top;spacingLeft=4;spacingRight=4;overflow=hidden;rotatable=0;points=[[0,0.5],[1,0.5]];portConstraint=eastwest;whiteSpace=wrap;html=1;" vertex="1" parent="XB_2aK_YlP-w_5xTxXp9-21">
          <mxGeometry y="78" width="435" height="26" as="geometry" />
        </mxCell>
        <mxCell id="XB_2aK_YlP-w_5xTxXp9-32" value="-&amp;nbsp;newConnectionCallback_:NewConnectionCallback" style="text;strokeColor=none;fillColor=none;align=left;verticalAlign=top;spacingLeft=4;spacingRight=4;overflow=hidden;rotatable=0;points=[[0,0.5],[1,0.5]];portConstraint=eastwest;whiteSpace=wrap;html=1;" vertex="1" parent="XB_2aK_YlP-w_5xTxXp9-21">
          <mxGeometry y="104" width="435" height="26" as="geometry" />
        </mxCell>
        <mxCell id="XB_2aK_YlP-w_5xTxXp9-23" value="" style="line;strokeWidth=1;fillColor=none;align=left;verticalAlign=middle;spacingTop=-1;spacingLeft=3;spacingRight=3;rotatable=0;labelPosition=right;points=[];portConstraint=eastwest;strokeColor=inherit;" vertex="1" parent="XB_2aK_YlP-w_5xTxXp9-21">
          <mxGeometry y="130" width="435" height="8" as="geometry" />
        </mxCell>
        <mxCell id="XB_2aK_YlP-w_5xTxXp9-24" value="+ listen(): void" style="text;strokeColor=none;fillColor=none;align=left;verticalAlign=top;spacingLeft=4;spacingRight=4;overflow=hidden;rotatable=0;points=[[0,0.5],[1,0.5]];portConstraint=eastwest;whiteSpace=wrap;html=1;" vertex="1" parent="XB_2aK_YlP-w_5xTxXp9-21">
          <mxGeometry y="138" width="435" height="26" as="geometry" />
        </mxCell>
        <mxCell id="XB_2aK_YlP-w_5xTxXp9-33" value="- handleRead()" style="text;strokeColor=none;fillColor=none;align=left;verticalAlign=top;spacingLeft=4;spacingRight=4;overflow=hidden;rotatable=0;points=[[0,0.5],[1,0.5]];portConstraint=eastwest;whiteSpace=wrap;html=1;" vertex="1" parent="XB_2aK_YlP-w_5xTxXp9-21">
          <mxGeometry y="164" width="435" height="26" as="geometry" />
        </mxCell>
        <mxCell id="XB_2aK_YlP-w_5xTxXp9-43" value="handleRead" style="swimlane;whiteSpace=wrap;html=1;" vertex="1" parent="1">
          <mxGeometry x="1170" y="1110" width="270" height="114" as="geometry" />
        </mxCell>
        <mxCell id="XB_2aK_YlP-w_5xTxXp9-44" value="acceptChannel绑定，用于处理新连接，&lt;br&gt;里面执行newConnectionCallback_，接受到&lt;br&gt;新连接，confd=&amp;gt;channel=&amp;gt;subloop" style="text;html=1;align=center;verticalAlign=middle;resizable=0;points=[];autosize=1;strokeColor=none;fillColor=none;" vertex="1" parent="XB_2aK_YlP-w_5xTxXp9-43">
          <mxGeometry x="16" y="28" width="250" height="60" as="geometry" />
        </mxCell>
        <mxCell id="XB_2aK_YlP-w_5xTxXp9-45" style="edgeStyle=orthogonalEdgeStyle;rounded=0;orthogonalLoop=1;jettySize=auto;html=1;exitX=1;exitY=0.5;exitDx=0;exitDy=0;entryX=0;entryY=0.25;entryDx=0;entryDy=0;" edge="1" parent="1" source="XB_2aK_YlP-w_5xTxXp9-33" target="XB_2aK_YlP-w_5xTxXp9-43">
          <mxGeometry relative="1" as="geometry" />
        </mxCell>
        <mxCell id="XB_2aK_YlP-w_5xTxXp9-46" value="listen" style="swimlane;whiteSpace=wrap;html=1;" vertex="1" parent="1">
          <mxGeometry x="1200" y="907.5" width="154" height="55" as="geometry">
            <mxRectangle x="1200" y="907.5" width="70" height="30" as="alternateBounds" />
          </mxGeometry>
        </mxCell>
        <mxCell id="XB_2aK_YlP-w_5xTxXp9-47" value="开启监听" style="text;html=1;align=center;verticalAlign=middle;resizable=0;points=[];autosize=1;strokeColor=none;fillColor=none;" vertex="1" parent="XB_2aK_YlP-w_5xTxXp9-46">
          <mxGeometry x="30" y="25" width="70" height="30" as="geometry" />
        </mxCell>
        <mxCell id="XB_2aK_YlP-w_5xTxXp9-49" style="edgeStyle=orthogonalEdgeStyle;rounded=0;orthogonalLoop=1;jettySize=auto;html=1;exitX=1;exitY=0.5;exitDx=0;exitDy=0;entryX=0;entryY=0.25;entryDx=0;entryDy=0;" edge="1" parent="1" source="XB_2aK_YlP-w_5xTxXp9-24" target="XB_2aK_YlP-w_5xTxXp9-46">
          <mxGeometry relative="1" as="geometry" />
        </mxCell>
      </root>
    </mxGraphModel>
  </diagram>
</mxfile>
